<?xml version="1.0" standalone="no"?>
<!DOCTYPE svg PUBLIC "-//W3C//DTD SVG 20010904//EN"
 "http://www.w3.org/TR/2001/REC-SVG-20010904/DTD/svg10.dtd">
<svg version="1.0" xmlns="http://www.w3.org/2000/svg"
 width="1254.000000pt" height="1254.000000pt" viewBox="0 0 1254.000000 1254.000000"
 preserveAspectRatio="xMidYMid meet">

<g transform="translate(0.000000,1254.000000) scale(0.100000,-0.100000)"
fill="#000000" stroke="none">
<path d="M6269 9915 c-1 -542 -1 -992 -1 -1000 0 -8 1 -27 2 -42 2 -24 3 -25
7 -6 2 12 10 23 16 26 401 158 537 209 558 209 28 -1 259 -84 361 -131 141
-65 347 -194 478 -299 84 -67 222 -194 216 -199 -2 -2 -26 9 -52 26 -27 16
-50 28 -53 26 -2 -3 1 -107 7 -232 7 -126 13 -279 14 -342 l3 -115 -70 -17
c-38 -9 -175 -41 -302 -70 -128 -29 -231 -55 -229 -57 2 -2 57 6 122 17 66 12
192 32 282 46 90 14 174 28 186 31 21 5 36 -10 123 -128 118 -157 265 -365
300 -426 l25 -42 -27 -118 c-50 -215 -129 -432 -234 -640 -38 -77 -43 -82 -83
-92 -24 -6 -124 -33 -223 -60 -217 -58 -420 -110 -434 -110 -5 0 -107 121
-225 269 -160 199 -214 274 -210 288 4 13 3 15 -4 4 -7 -9 -11 0 -16 33 -8 53
-5 62 27 68 20 4 24 1 20 -16 -6 -35 12 13 279 752 24 65 37 116 32 121 -31
27 -486 381 -761 590 l-122 94 -28 -18 c-31 -21 -604 -465 -758 -588 -55 -44
-101 -81 -103 -83 -2 -1 10 -37 27 -80 61 -160 279 -761 302 -832 l24 -73 479
6 c264 3 482 8 485 10 2 3 -4 5 -15 5 -18 1 -18 1 -1 11 21 12 67 4 67 -11 0
-6 11 -10 24 -10 27 0 17 12 243 -317 56 -81 119 -173 142 -204 l40 -56 -97
-169 c-169 -292 -295 -493 -311 -498 -46 -14 -264 -48 -386 -61 -106 -11 -162
-12 -239 -4 -135 13 -411 60 -420 71 -16 19 -341 567 -362 610 l-27 57 25 33
c31 41 332 488 342 508 10 21 11 22 -218 -264 l-199 -248 -36 7 c-40 7 -629
161 -657 172 -16 6 -131 234 -169 336 -10 26 -20 46 -22 43 -6 -6 60 -163 117
-277 50 -100 51 -100 60 -237 6 -75 12 -147 15 -158 6 -25 -17 -38 -34 -21 -8
8 -11 8 -11 -1 0 -13 -47 -16 -74 -6 -24 9 -19 37 13 68 l28 27 31 -48 c18
-26 32 -45 32 -41 0 3 -29 52 -65 109 -36 56 -65 97 -65 90 0 -7 -4 -9 -10 -6
-5 3 -10 1 -10 -4 0 -21 -47 -11 -70 14 -13 14 -33 25 -46 25 -20 0 -21 3 -14
36 11 48 37 75 66 70 13 -3 24 -4 24 -3 0 10 -60 139 -60 130 0 -7 -3 -12 -7
-11 -5 1 -19 -2 -32 -6 -16 -6 -26 -4 -32 5 -6 10 -9 6 -9 -13 0 -37 -33 -68
-70 -68 -25 0 -30 -4 -30 -25 0 -14 -6 -25 -13 -25 -22 0 -47 -34 -47 -63 0
-17 -5 -27 -15 -27 -9 0 -12 -6 -8 -17 4 -11 3 -14 -5 -9 -14 9 18 -62 80
-174 65 -116 104 -173 122 -176 12 -2 14 2 6 15 -7 14 -4 21 15 29 23 11 25
10 27 -16 0 -15 0 -34 -1 -42 -1 -8 -3 -23 -4 -32 -1 -14 -4 -15 -16 -5 -25
20 102 -143 175 -225 95 -105 229 -226 354 -320 100 -75 130 -92 114 -66 -4 7
-3 8 5 4 6 -4 9 -11 6 -16 -3 -5 25 -27 63 -49 70 -42 88 -49 76 -30 -4 8 0 8
15 0 24 -13 28 -23 6 -15 -8 4 -15 3 -15 0 0 -12 141 -77 152 -70 7 4 8 3 4
-4 -4 -7 -2 -12 3 -12 8 0 11 -347 11 -1149 l0 -1149 163 -179 c265 -291 528
-583 705 -782 56 -64 108 -116 115 -116 7 0 68 63 137 140 68 77 280 310 470
519 190 208 352 388 360 399 13 18 16 169 20 1166 l5 1145 113 63 c235 131
389 248 577 437 254 255 436 536 571 881 124 319 176 656 153 1000 -17 261
-56 443 -145 682 -152 406 -456 779 -841 1031 -174 113 -433 232 -633 289
l-65 19 -3 162 -2 162 1512 0 c1733 0 1569 -9 1673 95 41 41 83 100 134 190
40 72 160 281 266 465 106 184 200 350 209 368 l17 32 -2266 0 -2265 0 -1
-985z m2101 -2720 c0 -349 -125 -750 -328 -1057 -40 -60 -73 -108 -74 -108 -2
0 -2 71 0 157 l3 158 54 105 c106 210 176 410 230 663 15 69 22 83 59 117 22
22 44 40 49 40 4 0 7 -34 7 -75z m-4050 -962 c0 -10 -6 -12 -20 -8 -14 5 -20
2 -20 -9 0 -9 -7 -16 -15 -16 -9 0 -15 9 -15 25 0 22 4 24 35 23 23 -1 35 -6
35 -15z m-139 -122 c-7 -5 -10 -14 -7 -20 4 -6 5 -11 2 -11 -3 0 -10 8 -15 18
-8 14 -5 18 12 19 16 2 18 0 8 -6z m460 -118 c13 -16 12 -17 -3 -4 -10 7 -18
15 -18 17 0 8 8 3 21 -13z m124 -143 c21 -22 37 -40 34 -40 -3 0 -23 18 -44
40 -21 22 -37 40 -34 40 3 0 23 -18 44 -40z m110 -110 c10 -11 16 -20 13 -20
-3 0 -13 9 -23 20 -10 11 -16 20 -13 20 3 0 13 -9 23 -20z m76 -67 c13 -16 12
-17 -3 -4 -10 7 -18 15 -18 17 0 8 8 3 21 -13z m1133 -278 c196 -25 309 -19
587 31 l147 27 91 -26 c51 -15 119 -32 151 -39 33 -6 60 -14 60 -18 0 -8 -149
-68 -277 -111 -219 -74 -526 -123 -668 -107 -125 13 -309 54 -447 98 -69 22
-134 37 -145 34 -12 -4 -14 -3 -5 3 8 7 -10 19 -63 42 -41 18 -75 36 -75 40 0
4 29 13 65 20 35 7 106 25 157 40 l93 27 106 -23 c58 -12 158 -29 223 -38z
m-788 39 c18 -14 18 -14 -6 -3 -31 14 -36 19 -24 19 6 0 19 -7 30 -16z m78
-40 c44 -25 67 -46 26 -24 -11 6 -24 9 -28 7 -4 -2 -18 7 -31 20 -31 30 -24
29 33 -3z"/>
<path d="M1831 10224 c0 -11 3 -14 6 -6 3 7 2 16 -1 19 -3 4 -6 -2 -5 -13z"/>
<path d="M1840 10196 c0 -2 8 -10 18 -17 15 -13 16 -12 3 4 -13 16 -21 21 -21
13z"/>
<path d="M1913 10161 c-16 -15 -23 -17 -34 -8 -7 7 -5 2 5 -10 20 -24 32 -31
20 -11 -4 7 -3 8 5 4 6 -4 9 -12 6 -17 -11 -16 252 -322 297 -346 l41 -23
1649 0 1648 0 0 74 c0 54 -4 79 -16 90 -14 14 -179 16 -1671 16 -1451 0 -1659
2 -1686 15 -18 8 -77 65 -131 125 -55 61 -102 110 -106 110 -3 0 -16 -9 -27
-19z"/>
<path d="M5552 9650 c-1 -52 -5 -187 -8 -300 -4 -149 -2 -200 6 -188 7 11 9
110 7 300 -1 156 -3 240 -5 188z"/>
<path d="M5573 9540 c0 -36 2 -50 4 -32 2 17 2 47 0 65 -2 17 -4 3 -4 -33z"/>
<path d="M5475 9390 c11 -5 27 -9 35 -9 13 -1 13 0 0 9 -8 5 -24 9 -35 9 l-20
0 20 -9z"/>
<path d="M4703 8433 c-142 -163 -299 -434 -357 -614 -48 -151 -60 -233 -61
-419 0 -96 3 -183 8 -194 6 -14 26 12 102 129 52 81 120 181 150 222 30 41 52
79 49 84 -3 5 -1 8 4 7 5 -2 31 24 57 57 66 82 74 93 48 72 -21 -18 -21 -18
-19 0 3 20 15 22 67 11 83 -17 433 -68 443 -64 6 2 3 5 -8 5 -16 1 -288 62
-408 92 l-38 10 0 119 c0 66 5 210 11 320 6 109 9 204 7 211 -2 6 -27 -15 -55
-48z"/>
<path d="M5218 7713 c6 -2 18 -2 25 0 6 3 1 5 -13 5 -14 0 -19 -2 -12 -5z"/>
<path d="M4240 7255 c13 -14 26 -25 28 -25 3 0 -5 11 -18 25 -13 14 -26 25
-28 25 -3 0 5 -11 18 -25z"/>
<path d="M4202 7250 c0 -14 2 -19 5 -12 2 6 2 18 0 25 -3 6 -5 1 -5 -13z"/>
<path d="M3853 7125 c0 -27 2 -38 4 -22 2 15 2 37 0 50 -2 12 -4 0 -4 -28z"/>
<path d="M4211 7147 c0 -16 -5 -26 -11 -22 -5 3 -10 -3 -10 -14 0 -11 4 -23
10 -26 12 -7 23 35 17 66 -4 21 -4 21 -6 -4z"/>
<path d="M9272 7029 c-78 -56 -154 -116 -169 -135 -53 -70 -52 -62 -53 -731
l0 -622 -22 -24 c-14 -15 -112 -63 -243 -120 -558 -241 -1059 -483 -1107 -533
-15 -16 -32 -42 -37 -57 -8 -19 -11 -360 -11 -1075 0 -608 -4 -1061 -9 -1079
-7 -22 -110 -138 -330 -369 -177 -186 -320 -339 -318 -341 10 -9 952 450 986
480 13 12 32 40 42 62 17 36 19 69 19 302 l0 263 28 29 c21 22 133 71 498 216
275 110 479 185 488 182 13 -5 16 -24 16 -110 0 -109 7 -127 46 -127 13 0 86
25 163 56 104 41 145 63 158 82 17 25 18 67 21 580 2 385 -1 558 -8 573 -14
24 -9 26 -206 -58 -119 -50 -154 -69 -163 -89 -7 -16 -11 -101 -11 -243 0
-194 -2 -221 -17 -239 -10 -11 -90 -47 -178 -80 -88 -33 -281 -108 -430 -167
-413 -162 -395 -156 -401 -142 -2 7 -3 245 -2 529 l3 516 25 28 c14 15 54 40
90 56 36 17 214 99 395 183 366 170 605 278 718 326 82 34 127 71 160 133 22
41 22 42 25 861 3 770 -1 985 -16 985 -4 -1 -71 -46 -150 -101z"/>
<path d="M3863 7015 c0 -22 2 -30 4 -17 2 12 2 30 0 40 -3 9 -5 -1 -4 -23z"/>
<path d="M3882 7015 c0 -16 2 -22 5 -12 2 9 2 23 0 30 -3 6 -5 -1 -5 -18z"/>
<path d="M3872 6935 c0 -16 2 -22 5 -12 2 9 2 23 0 30 -3 6 -5 -1 -5 -18z"/>
<path d="M4221 6894 c0 -11 3 -14 6 -6 3 7 2 16 -1 19 -3 4 -6 -2 -5 -13z"/>
<path d="M3881 6864 c0 -11 3 -14 6 -6 3 7 2 16 -1 19 -3 4 -6 -2 -5 -13z"/>
<path d="M4381 6864 c0 -11 3 -14 6 -6 3 7 2 16 -1 19 -3 4 -6 -2 -5 -13z"/>
<path d="M3900 6860 c0 -5 5 -10 11 -10 5 0 7 5 4 10 -3 6 -8 10 -11 10 -2 0
-4 -4 -4 -10z"/>
<path d="M4396 6820 c3 -14 11 -32 16 -40 6 -10 7 -7 2 10 -3 14 -11 32 -16
40 -6 10 -7 7 -2 -10z"/>
<path d="M3892 6810 c0 -14 2 -19 5 -12 2 6 2 18 0 25 -3 6 -5 1 -5 -13z"/>
<path d="M4261 6812 c0 -7 -5 -11 -10 -8 -9 6 -25 -79 -19 -105 4 -20 36 -42
53 -35 8 3 15 0 15 -6 0 -6 2 -9 5 -6 3 2 -4 31 -14 64 -11 32 -21 70 -24 84
-2 14 -5 19 -6 12z"/>
<path d="M3926 6704 c-4 -15 -5 -29 -1 -32 3 -3 5 0 5 7 0 7 4 10 9 7 11 -7
20 14 13 32 -7 20 -19 14 -26 -14z"/>
<path d="M3931 6644 c0 -11 3 -14 6 -6 3 7 2 16 -1 19 -3 4 -6 -2 -5 -13z"/>
<path d="M4178 6618 c3 -13 11 -29 18 -35 10 -10 12 -6 11 20 -1 21 -8 33 -19
35 -13 2 -15 -2 -10 -20z"/>
<path d="M3941 6610 c0 -8 4 -22 9 -30 12 -18 12 -2 0 25 -6 13 -9 15 -9 5z"/>
<path d="M3980 6543 c0 -15 -2 -16 -11 -3 -12 18 -4 -17 16 -65 l12 -30 1 30
c0 17 2 41 4 54 2 13 -3 26 -9 28 -8 3 -13 -3 -13 -14z"/>
<path d="M4037 6442 c-13 -3 -17 -10 -14 -23 3 -10 1 -17 -4 -13 -5 3 -9 2 -9
-1 0 -14 63 -156 67 -151 2 2 -3 18 -11 35 -18 34 -22 66 -6 41 12 -18 12 -3
1 25 -5 11 -5 25 0 31 14 18 -4 60 -24 56z m13 -90 c0 -15 -2 -15 -10 -2 -13
20 -13 33 0 25 6 -3 10 -14 10 -23z"/>
<path d="M3093 5378 c6 -85 39 -144 104 -187 25 -17 50 -31 54 -31 23 0 1187
-536 1213 -559 50 -45 50 -39 47 -586 -2 -280 -4 -512 -7 -514 -4 -5 -105 31
-184 65 -95 40 -781 304 -791 304 -5 0 -21 11 -34 25 l-25 24 0 226 0 227 -29
29 c-33 33 -43 35 -61 14 -14 -17 -80 -21 -80 -5 0 6 -7 10 -15 10 -18 0 -18
1 -5 36 9 24 8 26 -10 21 -11 -3 -18 -2 -15 3 3 4 -24 20 -60 34 -68 27 -91
33 -65 16 13 -8 12 -10 -2 -10 -10 0 -18 6 -19 13 0 6 -4 3 -9 -8 -5 -11 -9
-263 -9 -560 -1 -495 0 -543 17 -575 15 -32 30 -40 157 -92 77 -31 149 -57
160 -57 38 -1 45 18 45 125 0 93 2 103 20 109 12 4 110 -30 272 -94 546 -215
703 -281 726 -307 22 -25 22 -30 22 -287 0 -233 2 -266 19 -302 10 -22 29 -50
42 -62 13 -12 155 -84 314 -161 160 -77 375 -181 479 -231 104 -50 193 -90
197 -89 4 2 -137 152 -313 333 -176 182 -326 339 -334 350 -11 17 -14 174 -16
895 -3 953 -9 1275 -21 1275 -5 0 -13 -8 -18 -17 -12 -22 -27 -23 -49 -3 -21
19 -15 62 11 76 16 8 22 4 39 -23 11 -18 20 -28 20 -21 0 7 -14 29 -32 48 -22
26 -82 62 -210 126 -99 49 -183 87 -188 84 -13 -8 -13 -25 1 -25 5 0 7 5 4 10
-11 17 7 11 104 -39 l94 -48 -33 -25 c-31 -24 -35 -25 -57 -11 -13 8 -23 12
-23 8 0 -3 -7 0 -15 9 -8 8 -15 19 -15 25 0 18 -26 12 -46 -10 -19 -21 -19
-22 4 -15 18 6 22 4 19 -13 -2 -11 -6 -24 -10 -27 -13 -13 -7 -26 7 -15 18 15
37 -7 30 -36 -3 -11 -1 -37 4 -57 11 -40 6 -48 -27 -39 -18 5 -22 11 -19 34 4
24 1 28 -28 34 -39 7 -53 24 -33 39 8 6 15 22 16 34 2 23 1 23 -15 5 -23 -26
-47 -34 -61 -20 -11 11 -12 10 -15 -15 -1 -7 -8 -13 -17 -12 -20 1 -13 -56 10
-74 24 -19 -16 -2 -389 170 -184 85 -427 194 -540 243 -166 73 -213 98 -247
132 -25 25 -43 52 -43 65 0 13 -5 30 -11 38 -8 11 -9 -3 -6 -52z m1617 -444
c25 -14 38 -23 30 -21 -8 2 -25 -2 -39 -9 -17 -9 -30 -10 -43 -3 -19 10 -25
39 -7 39 5 0 7 5 4 10 -10 16 6 11 55 -16z m-183 -346 c-3 -7 -5 -2 -5 12 0
14 2 19 5 13 2 -7 2 -19 0 -25z"/>
<path d="M4210 5175 c14 -8 30 -14 35 -14 6 0 -1 6 -15 14 -14 8 -29 14 -35
14 -5 0 1 -6 15 -14z"/>
<path d="M4310 5130 c8 -5 20 -10 25 -10 6 0 3 5 -5 10 -8 5 -19 10 -25 10 -5
0 -3 -5 5 -10z"/>
<path d="M4180 4939 c0 -5 5 -7 10 -4 6 3 10 8 10 11 0 2 -4 4 -10 4 -5 0 -10
-5 -10 -11z"/>
</g>
</svg>
